<svg xmlns="http://www.w3.org/2000/svg" viewBox="7309 18636 63.366 63.365">
  <defs>
    <style>
      .cls-1 {
        fill: #c0d7fc;
      }

      .cls-1, .cls-2, .cls-5 {
        stroke: #4286f5;
        stroke-width: 2px;
      }

      .cls-1, .cls-2, .cls-3, .cls-4, .cls-5 {
        stroke-linecap: round;
      }

      .cls-1, .cls-2, .cls-3, .cls-4 {
        stroke-miterlimit: 10;
      }

      .cls-2 {
        fill: #fff;
      }

      .cls-3, .cls-4, .cls-5 {
        fill: none;
      }

      .cls-3, .cls-4 {
        stroke: #f40030;
      }

      .cls-4 {
        stroke-width: 3px;
      }
    </style>
  </defs>
  <g id="Group_439" data-name="Group 439" transform="translate(7308.5 18635.5)">
    <g id="Group_437" data-name="Group 437" transform="translate(17.535 8.901)">
      <path id="Path_809" data-name="Path 809" class="cls-1" d="M98.831,76.382a3.093,3.093,0,0,1-3.084,3.084H56.584A3.093,3.093,0,0,1,53.5,76.382v-47.8A3.093,3.093,0,0,1,56.584,25.5H95.747a3.093,3.093,0,0,1,3.084,3.084Z" transform="translate(-53.5 -25.5)"/>
    </g>
    <g id="Group_438" data-name="Group 438" transform="translate(1.5 1.5)">
      <path id="Path_810" data-name="Path 810" class="cls-2" d="M42.205,40.972a3.093,3.093,0,0,1-3.084,3.084H4.584A3.093,3.093,0,0,1,1.5,40.972V4.584A3.093,3.093,0,0,1,4.584,1.5H39.121a3.093,3.093,0,0,1,3.084,3.084Z" transform="translate(-1.5 -1.5)"/>
    </g>
    <path id="Path_811" data-name="Path 811" class="cls-3" d="M162.5,108" transform="translate(-111.352 -73.658)"/>
    <path id="Path_812" data-name="Path 812" class="cls-4" d="M162.5,179" transform="translate(-111.352 -122.764)"/>
    <path id="Path_906" data-name="Path 906" class="cls-5" d="M0,0H13.723" transform="translate(43.831 48.917)"/>
    <path id="Path_905" data-name="Path 905" class="cls-5" d="M0,13.723V0" transform="translate(50.692 42.055)"/>
    <path id="Path_901" data-name="Path 901" class="cls-5" d="M0,0H8.3" transform="translate(8.038 8.654)"/>
    <path id="Path_902" data-name="Path 902" class="cls-5" d="M0,0H15.264" transform="translate(8.038 18.738)"/>
    <path id="Path_903" data-name="Path 903" class="cls-5" d="M0,0H15.264" transform="translate(8.038 28.822)"/>
    <path id="Path_904" data-name="Path 904" class="cls-5" d="M0,0H28.925" transform="translate(8.038 38.906)"/>
  </g>
</svg>
