<svg xmlns="http://www.w3.org/2000/svg" viewBox="7298.688 19116.537 45 40">
  <defs>
    <style>
      .cls-1 {
        fill: none;
        stroke: #9b9b9b;
        stroke-linecap: round;
        stroke-miterlimit: 10;
        stroke-width: 2px;
      }
    </style>
  </defs>
  <g id="Group_381" data-name="Group 381" transform="translate(7298.188 19116.063)">
    <g id="Group_379" data-name="Group 379" transform="translate(1.5 1.475)">
      <path id="Path_745" data-name="Path 745" class="cls-1" d="M1.5,22.511,22.562,1.655a.624.624,0,0,1,.877,0L44.5,22.511" transform="translate(-1.5 -1.475)"/>
    </g>
    <g id="Group_380" data-name="Group 380" transform="translate(5.747 18.293)">
      <path id="Path_746" data-name="Path 746" class="cls-1" d="M104.312,274.6v20.566a.621.621,0,0,1-.622.616H92.839a.621.621,0,0,1-.622-.616v-9.3a.621.621,0,0,0-.622-.616H82.517a.621.621,0,0,0-.622.616v9.3a.621.621,0,0,1-.622.616H70.422a.621.621,0,0,1-.622-.616V274.6" transform="translate(-69.8 -274.6)"/>
    </g>
  </g>
</svg>
