<svg xmlns="http://www.w3.org/2000/svg" viewBox="7595 19121 42 40.016">
  <defs>
    <style>
      .cls-1 {
        fill: #9b9b9b;
        stroke-width: 3px;
      }

      .cls-1, .cls-2 {
        stroke: #9b9b9b;
        stroke-miterlimit: 10;
      }

      .cls-2 {
        fill: none;
        stroke-width: 2px;
      }
    </style>
  </defs>
  <g id="Group_384" data-name="Group 384" transform="translate(7594.5 19120.5)">
    <g id="Group_382" data-name="Group 382" transform="translate(6.424 15.133)">
      <ellipse id="Ellipse_51" data-name="Ellipse 51" class="cls-1" cx="2.051" cy="2.272" rx="2.051" ry="2.272" transform="translate(0)"/>
      <ellipse id="Ellipse_52" data-name="Ellipse 52" class="cls-1" cx="2.051" cy="2.272" rx="2.051" ry="2.272" transform="translate(13.048)"/>
      <ellipse id="Ellipse_53" data-name="Ellipse 53" class="cls-1" cx="2.051" cy="2.272" rx="2.051" ry="2.272" transform="translate(26.097)"/>
    </g>
    <g id="Group_383" data-name="Group 383" transform="translate(1.5 1.5)">
      <path id="Path_747" data-name="Path 747" class="cls-2" d="M23.654,33.184c.023,0,.479.29,1.014.656l8.217,5.5c.536.353.98.088.98-.606V34.446A1.209,1.209,0,0,1,35,33.184H40.36a1.209,1.209,0,0,0,1.14-1.262V2.762A1.209,1.209,0,0,0,40.36,1.5H2.64A1.209,1.209,0,0,0,1.5,2.762V31.921a1.209,1.209,0,0,0,1.14,1.262H23.654Z" transform="translate(-1.5 -1.5)"/>
    </g>
  </g>
</svg>
