<svg xmlns="http://www.w3.org/2000/svg" viewBox="-21280.5 249.445 27.537 11.134">
  <defs>
    <style>
      .cls-1 {
        fill: #4c7bfd;
        stroke: #4c7bfd;
      }
    </style>
  </defs>
  <g id="Group_729" data-name="Group 729" transform="translate(-21279.979 250.06)">
    <path id="Path_1073" data-name="Path 1073" class="cls-1" d="M26.288,2.279,25.2,1.267c.136-.143.275-.279.414-.421a.532.532,0,1,0-.77-.734c-4.028,4.223-8.192,6.254-12.4,6.04C6,5.813,1.613.207,1.569.149a.53.53,0,0,0-.746-.1A.538.538,0,0,0,.725.8c.034.044.217.275.529.625L.149,2.456a.533.533,0,0,0-.027.754.522.522,0,0,0,.387.17.533.533,0,0,0,.363-.143L1.986,2.195A19.984,19.984,0,0,0,4.1,4.015L3.214,5.69a.528.528,0,0,0,.224.717.5.5,0,0,0,.248.065.533.533,0,0,0,.471-.285l.821-1.553A16.686,16.686,0,0,0,7.951,6.2L7.476,8.279a.535.535,0,0,0,.4.639.472.472,0,0,0,.119.014.532.532,0,0,0,.519-.414L8.961,6.57a13.7,13.7,0,0,0,3.425.642c.092,0,.18,0,.268,0l.01,2.276a.529.529,0,0,0,.529.527h0a.534.534,0,0,0,.532-.533l-.007-2.276a13.427,13.427,0,0,0,3.808-.764l.444,1.936a.532.532,0,0,0,.519.411.74.74,0,0,0,.122-.01.533.533,0,0,0,.4-.639l-.475-2.089A17.947,17.947,0,0,0,21.473,4.42l.861,1.631a.531.531,0,1,0,.939-.5l-.926-1.76a24.832,24.832,0,0,0,2.106-1.787l1.122,1.05a.539.539,0,0,0,.363.143.525.525,0,0,0,.39-.173.541.541,0,0,0-.041-.747Zm0,0" transform="translate(0 0)"/>
  </g>
</svg>
