<svg xmlns="http://www.w3.org/2000/svg" viewBox="-21250 246 26.48 17.172">
  <defs>
    <style>
      .cls-1 {
        fill: #4286f5;
      }
    </style>
  </defs>
  <path id="Path_1074" data-name="Path 1074" class="cls-1" d="M13.215,13.465a4.694,4.694,0,1,1,4.694-4.694,4.7,4.7,0,0,1-4.694,4.694Zm0-7.71a3.016,3.016,0,1,0,3.016,3.016,3.019,3.019,0,0,0-3.016-3.016Zm0,11.417A14.57,14.57,0,0,1,.061,8.955a.838.838,0,0,1,0-.739,14.638,14.638,0,0,1,26.308,0,.838.838,0,0,1,0,.739,14.57,14.57,0,0,1-13.154,8.216ZM1.757,8.586a12.962,12.962,0,0,0,22.923,0,12.962,12.962,0,0,0-22.923,0Zm0,0" transform="translate(-21249.975 246)"/>
</svg>
