<svg xmlns="http://www.w3.org/2000/svg" viewBox="7274 18333 39.776 44.205">
  <defs>
    <style>
      .cls-1 {
        fill: #f1433b;
      }
    </style>
  </defs>
  <path id="ic_fingerprint_24px" class="cls-1" d="M35.738,7.459a1.027,1.027,0,0,1-.508-.133A25.29,25.29,0,0,0,22.918,4.21,25.287,25.287,0,0,0,10.607,7.327,1.108,1.108,0,0,1,9.546,5.382a28.123,28.123,0,0,1,26.7-.022,1.119,1.119,0,0,1-.508,2.1ZM4.109,19.063a1.152,1.152,0,0,1-.641-.2A1.1,1.1,0,0,1,3.2,17.317a22.852,22.852,0,0,1,8.288-7.228,25.514,25.514,0,0,1,22.788-.022,22.939,22.939,0,0,1,8.288,7.183,1.11,1.11,0,0,1-1.812,1.282,20.749,20.749,0,0,0-7.493-6.5,23.29,23.29,0,0,0-20.776.022A20.968,20.968,0,0,0,4.971,18.6a.964.964,0,0,1-.862.464ZM17.923,45.741a1.037,1.037,0,0,1-.774-.332,22.344,22.344,0,0,1-4.443-5.835,19.62,19.62,0,0,1-2.321-9.593c0-6.564,5.614-11.913,12.51-11.913s12.51,5.349,12.51,11.913a1.105,1.105,0,0,1-2.21,0c0-5.349-4.619-9.7-10.3-9.7s-10.3,4.354-10.3,9.7a17.315,17.315,0,0,0,2.056,8.509,20.921,20.921,0,0,0,4.089,5.349,1.135,1.135,0,0,1,0,1.569,1.212,1.212,0,0,1-.818.332Zm15.848-4.089a11.9,11.9,0,0,1-6.852-1.967,11.768,11.768,0,0,1-5.26-9.7,1.105,1.105,0,1,1,2.21,0,9.507,9.507,0,0,0,4.288,7.869,9.691,9.691,0,0,0,5.614,1.569,14.607,14.607,0,0,0,2.3-.221,1.11,1.11,0,1,1,.376,2.188,15.093,15.093,0,0,1-2.674.265Zm-4.443,4.553a1.294,1.294,0,0,1-.287-.044,17.245,17.245,0,0,1-8.222-4.642,16.127,16.127,0,0,1-4.8-11.538,6.665,6.665,0,0,1,6.808-6.5,6.665,6.665,0,0,1,6.808,6.5,4.608,4.608,0,0,0,9.195,0c0-8.333-7.183-15.1-16.024-15.1A16.136,16.136,0,0,0,8.2,23.793a14.219,14.219,0,0,0-1.3,6.189,21.964,21.964,0,0,0,1.481,7.979,1.079,1.079,0,0,1-.641,1.415,1.1,1.1,0,0,1-1.415-.641,24.624,24.624,0,0,1-1.613-8.753,16.605,16.605,0,0,1,1.5-7.161,18.343,18.343,0,0,1,16.6-10.167c10.057,0,18.235,7.758,18.235,17.306a6.815,6.815,0,0,1-13.615,0,4.451,4.451,0,0,0-4.6-4.288,4.451,4.451,0,0,0-4.6,4.288,13.919,13.919,0,0,0,4.133,9.968,15.03,15.03,0,0,0,7.228,4.089,1.1,1.1,0,0,1,.774,1.348,1.078,1.078,0,0,1-1.039.84Z" transform="translate(7271.003 18331)"/>
</svg>
