<svg xmlns="http://www.w3.org/2000/svg" viewBox="7923.423 17936.393 37.152 38">
  <defs>
    <style>
      .cls-1 {
        fill: #fff;
        stroke: #fff;
        stroke-miterlimit: 10;
      }
    </style>
  </defs>
  <g id="Group_699" data-name="Group 699" transform="translate(7923.47 17936.393)">
    <path id="Path_955" data-name="Path 955" class="cls-1" d="M35.824,22.838l-3.265-2.559A12.033,12.033,0,0,0,32.622,19c0-.429-.027-.859-.063-1.279l3.283-2.576a1.837,1.837,0,0,0,.442-2.353l-3.5-6.074a1.853,1.853,0,0,0-2.291-.8L26.652,7.469a14.392,14.392,0,0,0-2.2-1.288l-.586-4.115A1.872,1.872,0,0,0,22.026.5h-7a1.855,1.855,0,0,0-1.84,1.574l-.577,4.106a14.392,14.392,0,0,0-2.2,1.288L6.56,5.912a1.9,1.9,0,0,0-2.282.805L.78,12.792a1.832,1.832,0,0,0,.451,2.362L4.5,17.721A12.033,12.033,0,0,0,4.432,19c0,.429.027.859.063,1.279L1.213,22.856A1.847,1.847,0,0,0,.78,25.208l3.5,6.074a1.87,1.87,0,0,0,2.291.8l3.842-1.548a13.638,13.638,0,0,0,2.2,1.279l.586,4.124A1.848,1.848,0,0,0,15.028,37.5h7a1.872,1.872,0,0,0,1.84-1.574l.577-4.106a13.694,13.694,0,0,0,2.2-1.288l3.851,1.557a1.928,1.928,0,0,0,.676.125,1.867,1.867,0,0,0,1.605-.93l3.49-6.065A1.836,1.836,0,0,0,35.824,22.838Zm-4.6,7.443-4.356-1.762a.982.982,0,0,0-.974.134,11.881,11.881,0,0,1-2.732,1.592.978.978,0,0,0-.6.769l-.64,4.544-6.791.1-.658-4.643a.974.974,0,0,0-.6-.769,12.272,12.272,0,0,1-2.732-1.592.986.986,0,0,0-.6-.206,1.045,1.045,0,0,0-.37.072l-4.193,1.8L2.448,24.368l3.7-2.89a.97.97,0,0,0,.361-.886,10.752,10.752,0,0,1,0-3.167.953.953,0,0,0-.361-.886L2.484,13.767,5.83,7.737l4.356,1.753a.982.982,0,0,0,.974-.134A12.129,12.129,0,0,1,13.9,7.764,1,1,0,0,0,14.5,7l.55-4.544,6.89-.1L22.594,7a.948.948,0,0,0,.6.76,12.272,12.272,0,0,1,2.732,1.592,1,1,0,0,0,.974.134l4.2-1.8,3.535,5.94-3.7,2.9a.968.968,0,0,0-.37.886A13.085,13.085,0,0,1,30.683,19a11.483,11.483,0,0,1-.117,1.583.96.96,0,0,0,.37.886l3.652,2.764Z"/>
    <path id="Path_956" data-name="Path 956" class="cls-1" d="M126.141,125.3a7.345,7.345,0,1,0,7.341,7.345A7.348,7.348,0,0,0,126.141,125.3Zm0,12.73a5.394,5.394,0,1,1,5.375-5.394A5.386,5.386,0,0,1,126.141,138.03Z" transform="translate(-107.604 -113.636)"/>
  </g>
</svg>
