<svg xmlns="http://www.w3.org/2000/svg" viewBox="7446.5 19117 38 39.5">
  <defs>
    <style>
      .cls-1, .cls-2, .cls-4 {
        fill: none;
        stroke: #9b9b9b;
        stroke-width: 2px;
      }

      .cls-1, .cls-2 {
        stroke-miterlimit: 10;
      }

      .cls-2, .cls-4 {
        stroke-linecap: round;
      }

      .cls-3 {
        fill: #9b9b9b;
      }
    </style>
  </defs>
  <g id="Group_702" data-name="Group 702" transform="translate(7240 17869)">
    <path id="Path_957" data-name="Path 957" class="cls-1" d="M40.964,43.5H7.025A.969.969,0,0,1,6,42.6V6.9A.969.969,0,0,1,7.025,6h33.95A.969.969,0,0,1,42,6.9v35.7A.986.986,0,0,1,40.964,43.5Z" transform="translate(201.5 1243)"/>
    <g id="Group_701" data-name="Group 701" transform="translate(205.331 1242.661)">
      <line id="Line_88" data-name="Line 88" class="cls-2" x2="15.245" transform="translate(14.924 15.712)"/>
      <circle id="Ellipse_79" data-name="Ellipse 79" class="cls-3" cx="1.373" cy="1.373" r="1.373" transform="translate(8.669 14.339)"/>
      <line id="Line_89" data-name="Line 89" class="cls-2" x2="15.245" transform="translate(14.924 23.669)"/>
      <circle id="Ellipse_80" data-name="Ellipse 80" class="cls-3" cx="1.373" cy="1.373" r="1.373" transform="translate(8.669 22.296)"/>
      <path id="Path_958" data-name="Path 958" class="cls-4" d="M0,0H10.281" transform="translate(14.924 32.222)"/>
      <circle id="Ellipse_81" data-name="Ellipse 81" class="cls-3" cx="1.373" cy="1.373" r="1.373" transform="translate(8.669 30.849)"/>
    </g>
  </g>
</svg>
