<svg xmlns="http://www.w3.org/2000/svg" viewBox="7677 18639 70.745 57.014">
  <defs>
    <style>
      .cls-1 {
        fill: #3fdbff;
      }

      .cls-2, .cls-4 {
        fill: none;
        stroke: #4286f5;
        stroke-miterlimit: 10;
      }

      .cls-2 {
        stroke-width: 3px;
      }

      .cls-3 {
        fill: #c0d7fc;
      }

      .cls-4 {
        stroke-width: 2px;
      }

      .cls-5 {
        fill: #fff;
      }
    </style>
  </defs>
  <g id="Group_450" data-name="Group 450" transform="translate(7676.5 18638.5)">
    <g id="Group_449" data-name="Group 449" transform="translate(1.5 1.5)">
      <g id="Group_442" data-name="Group 442" transform="translate(69.745 17.586)">
        <g id="Group_441" data-name="Group 441">
          <g id="Group_440" data-name="Group 440">
            <path id="Path_813" data-name="Path 813" class="cls-1" d="M233.5,60" transform="translate(-233.5 -60)"/>
            <path id="Path_814" data-name="Path 814" class="cls-2" d="M233.5,60" transform="translate(-233.5 -60)"/>
          </g>
        </g>
      </g>
      <g id="Group_443" data-name="Group 443" transform="translate(0)">
        <path id="Path_815" data-name="Path 815" class="cls-3" d="M23.145,20.139a3.015,3.015,0,0,1-3.006,3.006H4.506A3.015,3.015,0,0,1,1.5,20.139V4.506A3.015,3.015,0,0,1,4.506,1.5H20.139a3.015,3.015,0,0,1,3.006,3.006Z" transform="translate(-1.5 -1.5)"/>
        <path id="Path_816" data-name="Path 816" class="cls-4" d="M23.145,20.139a3.015,3.015,0,0,1-3.006,3.006H4.506A3.015,3.015,0,0,1,1.5,20.139V4.506A3.015,3.015,0,0,1,4.506,1.5H20.139a3.015,3.015,0,0,1,3.006,3.006Z" transform="translate(-1.5 -1.5)"/>
      </g>
      <g id="Group_444" data-name="Group 444" transform="translate(33.82)">
        <path id="Path_817" data-name="Path 817" class="cls-5" d="M135.645,20.139a3.015,3.015,0,0,1-3.006,3.006H117.006A3.015,3.015,0,0,1,114,20.139V4.506A3.015,3.015,0,0,1,117.006,1.5h15.632a3.015,3.015,0,0,1,3.006,3.006Z" transform="translate(-114 -1.5)"/>
        <path id="Path_818" data-name="Path 818" class="cls-4" d="M135.645,20.139a3.015,3.015,0,0,1-3.006,3.006H117.006A3.015,3.015,0,0,1,114,20.139V4.506A3.015,3.015,0,0,1,117.006,1.5h15.632a3.015,3.015,0,0,1,3.006,3.006Z" transform="translate(-114 -1.5)"/>
      </g>
      <g id="Group_445" data-name="Group 445" transform="translate(0 33.369)">
        <path id="Path_819" data-name="Path 819" class="cls-5" d="M23.145,131.139a3.015,3.015,0,0,1-3.006,3.006H4.506A3.015,3.015,0,0,1,1.5,131.139V115.506A3.015,3.015,0,0,1,4.506,112.5H20.139a3.015,3.015,0,0,1,3.006,3.006Z" transform="translate(-1.5 -112.5)"/>
        <path id="Path_820" data-name="Path 820" class="cls-4" d="M23.145,131.139a3.015,3.015,0,0,1-3.006,3.006H4.506A3.015,3.015,0,0,1,1.5,131.139V115.506A3.015,3.015,0,0,1,4.506,112.5H20.139a3.015,3.015,0,0,1,3.006,3.006Z" transform="translate(-1.5 -112.5)"/>
      </g>
      <g id="Group_446" data-name="Group 446" transform="translate(33.82 33.369)">
        <path id="Path_821" data-name="Path 821" class="cls-3" d="M135.645,131.139a3.015,3.015,0,0,1-3.006,3.006H117.006A3.015,3.015,0,0,1,114,131.139V115.506a3.015,3.015,0,0,1,3.006-3.006h15.632a3.015,3.015,0,0,1,3.006,3.006Z" transform="translate(-114 -112.5)"/>
        <path id="Path_822" data-name="Path 822" class="cls-4" d="M135.645,131.139a3.015,3.015,0,0,1-3.006,3.006H117.006A3.015,3.015,0,0,1,114,131.139V115.506a3.015,3.015,0,0,1,3.006-3.006h15.632a3.015,3.015,0,0,1,3.006,3.006Z" transform="translate(-114 -112.5)"/>
      </g>
      <g id="Group_447" data-name="Group 447" transform="translate(21.044 20.743)">
        <line id="Line_52" data-name="Line 52" class="cls-4" x1="12.927" y2="13.829"/>
      </g>
      <g id="Group_448" data-name="Group 448" transform="translate(21.044 20.442)">
        <line id="Line_53" data-name="Line 53" class="cls-4" x2="13.528" y2="13.829"/>
      </g>
    </g>
  </g>
</svg>
