<svg xmlns="http://www.w3.org/2000/svg" viewBox="7276 18857 38 38">
  <defs>
    <style>
      .cls-1 {
        fill: #dcdcdc;
        stroke: #666;
        stroke-width: 2px;
      }

      .cls-2 {
        fill: none;
      }

      .cls-3 {
        fill: #fff;
      }

      .cls-4, .cls-5 {
        stroke: none;
      }

      .cls-5 {
        fill: #666;
      }
    </style>
  </defs>
  <g id="Group_621" data-name="Group 621" transform="translate(6973.121 17931.121)">
    <path id="Path_844" data-name="Path 844" class="cls-1" d="M18,0A18,18,0,1,1,0,18,18,18,0,0,1,18,0Z" transform="translate(303.879 926.879)"/>
    <ellipse id="Ellipse_58" data-name="Ellipse 58" class="cls-2" cx="13.34" cy="13.34" rx="13.34" ry="13.34" transform="translate(308.439 931.582)"/>
    <g id="Path_831" data-name="Path 831" class="cls-3" transform="translate(316.135 939.278)">
      <path class="cls-4" d="M 10.31591701507568 10.31588363647461 L 0.999997079372406 10.31588363647461 L 0.999997079372406 1.000003218650818 L 10.31591701507568 1.000003218650818 L 10.31591701507568 10.31588363647461 Z"/>
      <path class="cls-5" d="M 9.315917015075684 9.315883636474609 L 9.315917015075684 2.000003337860107 L 1.999997019767761 2.000003337860107 L 1.999997019767761 9.315883636474609 L 9.315917015075684 9.315883636474609 M 11.31591701507568 11.31588363647461 L -2.922973635577364e-06 11.31588363647461 L -2.922973635577364e-06 3.248748726036865e-06 L 11.31591701507568 3.248748726036865e-06 L 11.31591701507568 11.31588363647461 Z"/>
    </g>
  </g>
</svg>
